<svg width="14" height="16" viewBox="0 0 14 16" fill="none" xmlns="http://www.w3.org/2000/svg">
<path fill-rule="evenodd" clip-rule="evenodd" d="M9.64187 7.24844C9.68585 7.29231 9.72074 7.34442 9.74454 7.40179C9.76835 7.45916 9.7806 7.52066 9.7806 7.58278C9.7806 7.64489 9.76835 7.70639 9.74454 7.76376C9.72074 7.82113 9.68585 7.87324 9.64187 7.91711L6.80854 10.7504C6.76467 10.7944 6.71256 10.8293 6.65519 10.8531C6.59782 10.8769 6.53632 10.8892 6.4742 10.8892C6.41209 10.8892 6.35059 10.8769 6.29322 10.8531C6.23584 10.8293 6.18373 10.7944 6.13987 10.7504L4.7232 9.33378C4.6793 9.28987 4.64447 9.23775 4.62071 9.18038C4.59695 9.12302 4.58472 9.06153 4.58472 8.99944C4.58472 8.93735 4.59695 8.87587 4.62071 8.8185C4.64447 8.76114 4.6793 8.70902 4.7232 8.66511C4.81187 8.57644 4.93214 8.52663 5.05754 8.52663C5.11963 8.52663 5.18111 8.53885 5.23848 8.56262C5.29584 8.58638 5.34796 8.6212 5.39187 8.66511L6.4742 9.74839L8.9732 7.24844C9.01707 7.20447 9.06918 7.16958 9.12655 7.14577C9.18392 7.12196 9.24542 7.10971 9.30754 7.10971C9.36965 7.10971 9.43115 7.12196 9.48852 7.14577C9.54589 7.16958 9.598 7.20447 9.64187 7.24844Z" fill="white" stroke="white" stroke-width="0.4"/>
<path d="M3.16671 1.91763H2.22226C1.7213 1.91763 1.24085 2.11664 0.886617 2.47088C0.532381 2.82511 0.333374 3.30556 0.333374 3.80652V13.7232C0.333374 14.2242 0.532381 14.7046 0.886617 15.0588C1.24085 15.4131 1.7213 15.6121 2.22226 15.6121H11.6667C12.1677 15.6121 12.6481 15.4131 13.0024 15.0588C13.3566 14.7046 13.5556 14.2242 13.5556 13.7232V3.80652C13.5556 3.30556 13.3566 2.82511 13.0024 2.47088C12.6481 2.11664 12.1677 1.91763 11.6667 1.91763H10.7223V2.86208H11.6667C11.9172 2.86208 12.1574 2.96158 12.3345 3.1387C12.5116 3.31582 12.6112 3.55604 12.6112 3.80652V13.7232C12.6112 13.9737 12.5116 14.2139 12.3345 14.391C12.1574 14.5681 11.9172 14.6676 11.6667 14.6676H2.22226C1.97178 14.6676 1.73156 14.5681 1.55444 14.391C1.37732 14.2139 1.27782 13.9737 1.27782 13.7232V3.80652C1.27782 3.55604 1.37732 3.31582 1.55444 3.1387C1.73156 2.96158 1.97178 2.86208 2.22226 2.86208H3.16671V1.91763Z" fill="white" stroke="white" stroke-width="0.4"/>
<path d="M8.36108 1.44444C8.48632 1.44444 8.60644 1.4942 8.695 1.58275C8.78355 1.67131 8.83331 1.79143 8.83331 1.91667V2.86111C8.83331 2.98635 8.78355 3.10646 8.695 3.19502C8.60644 3.28358 8.48632 3.33333 8.36108 3.33333H5.52775C5.40251 3.33333 5.2824 3.28358 5.19384 3.19502C5.10528 3.10646 5.05553 2.98635 5.05553 2.86111V1.91667C5.05553 1.79143 5.10528 1.67131 5.19384 1.58275C5.2824 1.4942 5.40251 1.44444 5.52775 1.44444H8.36108ZM5.52775 0.5C5.15203 0.5 4.79169 0.649255 4.52602 0.914932C4.26034 1.18061 4.11108 1.54094 4.11108 1.91667V2.86111C4.11108 3.23683 4.26034 3.59717 4.52602 3.86285C4.79169 4.12852 5.15203 4.27778 5.52775 4.27778H8.36108C8.73681 4.27778 9.09714 4.12852 9.36282 3.86285C9.6285 3.59717 9.77775 3.23683 9.77775 2.86111V1.91667C9.77775 1.54094 9.6285 1.18061 9.36282 0.914932C9.09714 0.649255 8.73681 0.5 8.36108 0.5L5.52775 0.5Z" fill="white" stroke="white" stroke-width="0.4"/>
</svg>
