<svg width="76" height="70" viewBox="0 0 76 70" fill="none" xmlns="http://www.w3.org/2000/svg">
<path d="M17.3694 29.8155V35.8019C17.3694 36.7124 16.7756 37.5165 15.9053 37.7843L6.81629 40.5808C5.07591 41.1165 3.88824 42.7246 3.88824 44.5454V59.6295C3.88824 62.4931 6.20968 64.8145 9.07326 64.8145H11.6658H38.8873V29.8155H17.3694Z" fill="#D29B6E"/>
<path d="M24.6285 45.3706C19.6097 45.3706 15.1849 42.7361 12.6418 38.7883L6.81629 40.5808C5.07591 41.1164 3.88824 42.7245 3.88824 44.5453V59.6294C3.88824 62.493 6.20968 64.8144 9.07326 64.8144H11.6658H38.8873V31.1115C38.8875 38.954 32.4709 45.3706 24.6285 45.3706Z" fill="#59D8FF"/>
<path d="M38.8892 31.1118C38.8892 38.9542 32.4726 45.3706 24.6304 45.3706C19.6116 45.3706 15.1868 42.7361 12.6437 38.7884L10.0765 39.5783C12.9973 44.5875 18.4136 47.9631 24.6304 47.9631C30.6437 47.9631 35.907 44.8035 38.8892 40.0637V31.1118Z" fill="#00C3F0"/>
<path d="M25.9261 58.3331H12.9634C12.2475 58.3331 11.6671 57.7527 11.6671 57.0368V50.87C11.6671 49.8387 11.2572 48.8495 10.5281 48.1201L4.61948 42.2114C4.16001 42.8844 3.88953 43.6887 3.88953 44.5452V59.6293C3.88953 62.4929 6.21096 64.8143 9.07454 64.8143H11.6671H29.8148V62.2218C29.8148 60.0741 28.0738 58.3331 25.9261 58.3331Z" fill="#00C3F0"/>
<path d="M35.6493 20.7423H35.4569L35.0011 11.6684H14.4229V20.7423H13.6127C12.5389 20.7423 11.6684 21.6129 11.6684 22.6866V25.2791C11.6684 26.353 12.539 27.2235 13.6127 27.2235H14.8417L15.0522 28.5396C15.2107 29.5296 15.7224 30.4289 16.4928 31.0709L20.6549 34.5393C21.2139 35.0051 21.9188 35.2603 22.6467 35.2603H26.6157C27.3434 35.2603 28.0483 35.0051 28.6074 34.5393L32.7696 31.0709C33.5399 30.4291 34.0515 29.5298 34.2101 28.5396L34.4207 27.2235H35.6493C36.7231 27.2235 37.5936 26.3528 37.5936 25.2791V22.6866C37.5936 21.6128 36.723 20.7423 35.6493 20.7423Z" fill="#F0C087"/>
<path d="M35.0011 11.6684H22.0384H14.4229V20.7423H13.6127C12.5389 20.7423 11.6684 21.6129 11.6684 22.6866V25.2791C11.6684 26.353 12.539 27.2235 13.6127 27.2235H14.8417L15.0522 28.5395C15.2107 29.5296 15.7224 30.4288 16.4928 31.0708L20.6549 34.5392C21.2139 35.005 21.9188 35.2602 22.6464 35.2602H24.2853L22.4374 29.7169C22.1731 28.9239 22.0383 28.0935 22.0383 27.2575V19.4458C22.0383 18.7299 22.6188 18.1495 23.3346 18.1495C23.3346 18.1495 24.6309 18.1495 25.1494 17.5266C25.9395 17.9305 26.8249 18.1495 27.742 18.1495C28.6591 18.1495 29.5443 17.9305 30.3345 17.5266C31.1245 17.9305 32.0099 18.1495 32.927 18.1495C33.0574 18.1495 33.1845 18.1407 33.3108 18.1263L35.3255 18.1288L35.0011 11.6684Z" fill="#E6AF78"/>
<path d="M40.185 11.4072C40.185 9.97092 39.2063 8.774 37.8831 8.416C38.027 8.05785 38.1109 7.66886 38.1109 7.25902C38.1109 5.54082 36.7181 4.14801 34.9999 4.14801C34.9366 4.14801 34.8775 4.16299 34.8151 4.16666C34.3918 2.95139 33.2483 2.07401 31.8889 2.07401C31.5549 2.07401 31.2383 2.13627 30.9388 2.23715C30.2748 1.50514 29.3254 1.037 28.2592 1.037C27.9842 1.037 27.719 1.07342 27.4615 1.13128C26.7194 0.434507 25.7279 0 24.6297 0C23.5314 0 22.54 0.434507 21.7978 1.13128C21.5404 1.07342 21.2749 1.037 21.0002 1.037C20.0106 1.037 19.1156 1.43539 18.4608 2.07768C18.4429 2.07738 18.4259 2.07401 18.4077 2.07401C17.0482 2.07401 15.9047 2.95154 15.4814 4.16666C15.419 4.16299 15.3598 4.14801 15.2967 4.14801C13.5784 4.14801 12.1856 5.54082 12.1856 7.25902C12.1856 7.66872 12.2696 8.0577 12.4132 8.416C11.0902 8.774 10.1116 9.97092 10.1116 11.4072C10.1116 12.2076 10.4224 12.9298 10.919 13.4812C10.4224 14.0324 10.1116 14.7548 10.1116 15.5552C10.1116 16.7066 10.7447 17.6981 11.6758 18.2333C11.7219 19.6245 12.8572 20.7404 14.2598 20.7404H15.3931C15.9 20.7404 16.3326 20.3738 16.416 19.8738L17.1397 15.532C17.2175 15.5379 17.2917 15.5553 17.371 15.5553C18.4545 15.5553 19.4065 15.0003 19.9635 14.16C20.5206 15.0001 21.4724 15.5553 22.556 15.5553C23.6395 15.5553 24.5915 15.0003 25.1485 14.16C25.7056 15.0001 26.6574 15.5553 27.741 15.5553C28.8245 15.5553 29.7765 15.0003 30.3335 14.16C30.8906 15.0001 31.8425 15.5553 32.926 15.5553C33.005 15.5553 33.0795 15.5379 33.1573 15.532L33.8809 19.8738C33.9643 20.3738 34.3969 20.7404 34.9038 20.7404H36.2963C37.7281 20.7404 38.8889 19.5796 38.8889 18.1479C38.8889 18.121 38.8817 18.096 38.8809 18.0693C39.6679 17.5079 40.1852 16.5966 40.1852 15.5553C40.1852 14.7549 39.8745 14.0326 39.3777 13.4813C39.8743 12.9298 40.185 12.2076 40.185 11.4072Z" fill="#694B4B"/>
<path d="M23.8705 13.2965C22.6552 12.8731 21.7778 11.7297 21.7778 10.3702C21.7778 9.56974 22.0886 8.84742 22.5852 8.29618C22.0886 7.74493 21.7778 7.02261 21.7778 6.22217C21.7778 4.7859 22.7566 3.58898 24.0798 3.23098C23.9359 2.87283 23.8521 2.48384 23.8521 2.07401C23.8521 1.27489 24.1621 0.553597 24.6573 0.00278988C24.6479 0.00278988 24.6394 0 24.63 0C23.5317 0 22.5403 0.434507 21.7981 1.13128C21.5407 1.07342 21.2752 1.037 21.0005 1.037C20.0109 1.037 19.1159 1.43539 18.4611 2.07768C18.4432 2.07738 18.4262 2.07401 18.408 2.07401C17.0485 2.07401 15.905 2.95154 15.4817 4.16666C15.4193 4.16299 15.3601 4.14801 15.2969 4.14801C13.5787 4.14801 12.1859 5.54082 12.1859 7.25902C12.1859 7.66872 12.2699 8.0577 12.4135 8.416C11.0903 8.774 10.1116 9.97092 10.1116 11.4072C10.1116 12.2076 10.4224 12.9298 10.919 13.4812C10.4224 14.0324 10.1116 14.7548 10.1116 15.5552C10.1116 16.7066 10.7447 17.6981 11.6758 18.2333C11.7219 19.6245 12.8572 20.7404 14.2598 20.7404H15.3931C15.9 20.7404 16.3326 20.3738 16.416 19.8738L17.1397 15.532C17.2175 15.5379 17.2917 15.5553 17.371 15.5553C18.4545 15.5553 19.4065 15.0003 19.9635 14.16C20.5206 15.0001 21.4724 15.5553 22.556 15.5553C23.2715 15.5553 23.9168 15.2968 24.4419 14.8901C24.0867 14.5203 23.8523 14.0355 23.8523 13.4813C23.852 13.4179 23.8649 13.3583 23.8705 13.2965Z" fill="#5A4146"/>
<path d="M22.0353 58.3312H25.9241C28.0718 58.3312 29.813 60.0723 29.813 62.22V64.8125H22.0353V58.3312Z" fill="#E6AF78"/>
<path d="M71.2943 55.7397H32.4064C30.2587 55.7397 28.5176 53.9986 28.5176 51.8509V28.5181C28.5176 26.3704 30.2587 24.6293 32.4064 24.6293H71.2945C73.4422 24.6293 75.1833 26.3704 75.1833 28.5181V51.851C75.1832 53.9987 73.4421 55.7397 71.2943 55.7397Z" fill="#D5DCED"/>
<path d="M59.6296 64.8142L57.3369 47.6201C57.1651 46.3321 56.0666 45.3703 54.767 45.3703H48.9366C47.6372 45.3703 46.5385 46.3321 46.3667 47.6201L44.0742 64.8142V67.4067H59.6294V64.8142H59.6296Z" fill="#AFB9D2"/>
<path d="M51.8493 40.1848C53.2811 40.1848 54.4418 39.0241 54.4418 37.5923C54.4418 36.1605 53.2811 34.9998 51.8493 34.9998C50.4175 34.9998 49.2568 36.1605 49.2568 37.5923C49.2568 39.0241 50.4175 40.1848 51.8493 40.1848Z" fill="white"/>
<path d="M73.8872 70.0004H1.29633C0.580469 70.0004 0 69.42 0 68.7041V66.1116C0 65.3957 0.580469 64.8153 1.29633 64.8153H73.8873C74.6032 64.8153 75.1836 65.3957 75.1836 66.1116V68.7041C75.1835 69.42 74.603 70.0004 73.8872 70.0004Z" fill="#F5DCB4"/>
</svg>
