<svg width="15" height="16" viewBox="0 0 15 16" fill="none" xmlns="http://www.w3.org/2000/svg">
<path d="M9.81196 4.9547L5.32583 9.41842C5.25007 9.49121 5.18965 9.57828 5.14808 9.67454C5.10651 9.77081 5.08463 9.87435 5.08372 9.97912C5.0828 10.0839 5.10287 10.1878 5.14275 10.2848C5.18263 10.3817 5.24153 10.4698 5.316 10.5439C5.39047 10.618 5.47903 10.6766 5.57651 10.7163C5.67398 10.756 5.77843 10.7759 5.88374 10.775C5.98906 10.7741 6.09314 10.7523 6.18991 10.711C6.28668 10.6696 6.3742 10.6095 6.44736 10.5342L10.9343 6.07122C11.3806 5.62725 11.6313 5.02509 11.6313 4.39722C11.6313 3.76935 11.3806 3.1672 10.9343 2.72323C10.488 2.27926 9.88273 2.02984 9.25159 2.02984C8.62046 2.02984 8.01518 2.27926 7.5689 2.72323L3.08197 7.18695C2.70607 7.5516 2.40669 7.98687 2.20121 8.46752C1.99572 8.94816 1.88821 9.46462 1.88493 9.98692C1.88164 10.5092 1.98263 11.027 2.18204 11.5101C2.38146 11.9933 2.67533 12.4323 3.04661 12.8016C3.41788 13.1709 3.85918 13.4632 4.34489 13.6615C4.8306 13.8598 5.35106 13.9602 5.87608 13.9569C6.40109 13.9535 6.92022 13.8465 7.40333 13.642C7.88645 13.4375 8.32394 13.1396 8.69043 12.7656L13.1774 8.30268L14.2989 9.41842L9.81196 13.8821C9.29637 14.3951 8.68428 14.8019 8.01063 15.0795C7.33698 15.3571 6.61496 15.5 5.8858 15.5C5.15665 15.5 4.43463 15.3571 3.76098 15.0795C3.08733 14.8019 2.47523 14.3951 1.95964 13.8821C1.44405 13.3692 1.03506 12.7603 0.756027 12.0901C0.476992 11.42 0.333374 10.7017 0.333374 9.97628C0.333374 9.2509 0.476992 8.53262 0.756027 7.86245C1.03506 7.19228 1.44405 6.58335 1.95964 6.07043L6.44736 1.6075C7.19533 0.888825 8.1971 0.49116 9.23693 0.500149C10.2768 0.509138 11.2714 0.924062 12.0067 1.65555C12.742 2.38705 13.1591 3.37658 13.1681 4.41103C13.1772 5.44547 12.7774 6.44207 12.055 7.18616L7.5689 11.6515C7.34787 11.8713 7.08548 12.0457 6.79672 12.1646C6.50795 12.2836 6.19846 12.3448 5.88592 12.3447C5.57338 12.3447 5.2639 12.2834 4.97517 12.1644C4.68643 12.0454 4.42408 11.871 4.20311 11.6511C3.98213 11.4312 3.80685 11.1702 3.68728 10.8829C3.56771 10.5956 3.50619 10.2877 3.50623 9.9768C3.50626 9.66587 3.56786 9.358 3.6875 9.07075C3.80714 8.78351 3.98248 8.52252 4.2035 8.30268L8.69043 3.83896L9.81196 4.9547Z" fill="white"/>
</svg>
