<svg width="79" height="70" viewBox="0 0 79 70" fill="none" xmlns="http://www.w3.org/2000/svg">
<path d="M49.8081 57.8849H28.2698V68.6541H49.8081V57.8849Z" fill="#5B5D6E"/>
<path d="M49.8081 57.8849H28.2698V61.9234H49.8081V57.8849Z" fill="#464655"/>
<path d="M75.3844 59.2311H2.69227C1.20531 59.2311 0 58.0258 0 56.5387V10.7696C0 9.28264 1.20531 8.07733 2.69227 8.07733H75.3844C76.8714 8.07733 78.0767 9.28264 78.0767 10.7696V56.5387C78.0767 58.0258 76.8714 59.2311 75.3844 59.2311Z" fill="#707487"/>
<path d="M68.6532 8.07733H9.42265V13.4619H68.6532V8.07733Z" fill="#5B5D6E"/>
<path d="M71.3463 53.8468H6.73112C5.98771 53.8468 5.3849 53.244 5.3849 52.5006V14.8085C5.3849 14.0651 5.98771 13.4622 6.73112 13.4622H71.3463C72.0897 13.4622 72.6925 14.0651 72.6925 14.8085V52.5006C72.6925 53.2441 72.0897 53.8468 71.3463 53.8468Z" fill="white"/>
<path d="M63.2689 36.3462H14.8074C13.3204 36.3462 12.1151 35.1409 12.1151 33.654V5.38472C12.1151 3.89775 13.3204 2.69244 14.8074 2.69244H63.2687C64.7557 2.69244 65.961 3.89775 65.961 5.38472V33.6538C65.9612 35.1409 64.7559 36.3462 63.2689 36.3462Z" fill="#FFC850"/>
<path d="M14.8068 49.8073H12.1146C11.3706 49.8073 10.7684 49.2052 10.7684 48.4611C10.7684 47.717 11.3704 47.1148 12.1146 47.1148H14.8068C15.5509 47.1148 16.1531 47.7169 16.1531 48.4611C16.1531 49.2052 15.551 49.8073 14.8068 49.8073Z" fill="#FFDC64"/>
<path d="M14.8068 44.4224H12.1146C11.3706 44.4224 10.7684 43.8203 10.7684 43.0762C10.7684 42.332 11.3704 41.7299 12.1146 41.7299H14.8068C15.5509 41.7299 16.1531 42.332 16.1531 43.0762C16.1531 43.8203 15.551 44.4224 14.8068 44.4224Z" fill="#FFDC64"/>
<path d="M30.9608 44.4245H20.1915C19.4475 44.4245 18.8453 43.8224 18.8453 43.0782C18.8453 42.3341 19.4473 41.732 20.1915 41.732H30.9608C31.7048 41.732 32.307 42.3341 32.307 43.0782C32.307 43.8224 31.7049 44.4245 30.9608 44.4245Z" fill="#707487"/>
<path d="M36.3471 49.8075H20.1934C19.4493 49.8075 18.8471 49.2055 18.8471 48.4613C18.8471 47.7173 19.4492 47.1151 20.1934 47.1151H36.3471C37.0912 47.1151 37.6933 47.7172 37.6933 48.4613C37.6932 49.2055 37.0912 49.8075 36.3471 49.8075Z" fill="#7F8499"/>
<path d="M44.4235 49.8073H41.7312C40.9872 49.8073 40.385 49.2052 40.385 48.4611C40.385 47.717 40.9871 47.1148 41.7312 47.1148H44.4235C45.1675 47.1148 45.7697 47.7169 45.7697 48.4611C45.7697 49.2052 45.1677 49.8073 44.4235 49.8073Z" fill="#FFDC64"/>
<path d="M44.4235 44.4224H41.7312C40.9872 44.4224 40.385 43.8203 40.385 43.0762C40.385 42.332 40.9871 41.7299 41.7312 41.7299H44.4235C45.1675 41.7299 45.7697 42.332 45.7697 43.0762C45.7697 43.8203 45.1677 44.4224 44.4235 44.4224Z" fill="#FFDC64"/>
<path d="M60.5759 44.4245H49.8066C49.0626 44.4245 48.4604 43.8224 48.4604 43.0782C48.4604 42.3341 49.0625 41.732 49.8066 41.732H60.5759C61.3199 41.732 61.9221 42.3341 61.9221 43.0782C61.9221 43.8224 61.32 44.4245 60.5759 44.4245Z" fill="#707487"/>
<path d="M65.9604 49.8075H49.8066C49.0626 49.8075 48.4604 49.2055 48.4604 48.4613C48.4604 47.7173 49.0625 47.1151 49.8066 47.1151H65.9604C66.7044 47.1151 67.3066 47.7172 67.3066 48.4613C67.3065 49.2055 66.7044 49.8075 65.9604 49.8075Z" fill="#7F8499"/>
<path d="M47.2826 0C40.8776 0 39.0477 1.95024 39.0477 1.95024C39.0477 1.95024 37.2178 0 30.8127 0C25.143 0 18.5533 1.40446 16.688 1.82977C16.382 1.89961 16.1729 2.17029 16.1729 2.48427V32.0659C16.1729 32.4968 16.5644 32.818 16.9849 32.7243C19.1764 32.2357 25.412 30.9614 30.8126 30.9614C35.1712 30.9614 37.4111 31.8644 38.3975 32.4416C38.7985 32.6761 39.2964 32.6761 39.6973 32.4416C40.6836 31.8644 42.9238 30.9614 47.2822 30.9614C52.6827 30.9614 58.9184 32.2356 61.11 32.7242C61.5306 32.818 61.922 32.4967 61.922 32.0657V2.48412C61.922 2.17013 61.7131 1.89946 61.4069 1.82962C59.5422 1.40446 52.9524 0 47.2826 0Z" fill="#E4EAF8"/>
<path d="M33.6542 24.3751C33.6056 24.3751 33.5556 24.3723 33.5057 24.3671C31.9875 24.2001 30.1693 24.1976 28.3511 24.3119C27.6149 24.3357 26.9695 23.7953 26.9235 23.0526C26.8776 22.3112 27.4401 21.6723 28.1827 21.625C30.1546 21.5015 32.1239 21.508 33.8 21.6907C34.5388 21.7721 35.0726 22.4361 34.991 23.1762C34.915 23.8651 34.3325 24.3751 33.6542 24.3751Z" fill="#707487"/>
<path d="M21.5331 25.1106C20.8862 25.1106 20.3159 24.644 20.2067 23.9852C20.0844 23.2517 20.5801 22.5588 21.3135 22.4366C21.7552 22.363 22.2127 22.2907 22.6833 22.221C23.4366 22.1211 24.1044 22.6221 24.2122 23.3554C24.3213 24.0917 23.8125 24.7753 23.0778 24.8843C22.6229 24.9513 22.1813 25.0211 21.7554 25.092C21.6802 25.1053 21.6067 25.1106 21.5331 25.1106Z" fill="#7F8499"/>
<path d="M21.5331 19.7259C20.8862 19.7259 20.3159 19.2593 20.2067 18.6005C20.0844 17.867 20.5801 17.1729 21.3135 17.052C26.3261 16.2186 30.5169 15.9438 33.7981 16.304C34.5369 16.3854 35.0707 17.0494 34.9891 17.7894C34.9077 18.5269 34.2503 19.0542 33.5037 18.9804C30.4841 18.6504 26.5088 18.9186 21.7551 19.7073C21.6802 19.7208 21.6053 19.7259 21.5331 19.7259Z" fill="#7F8499"/>
<path d="M33.652 13.6044C33.6048 13.6044 33.5561 13.6016 33.5075 13.5964C33.1117 13.5543 32.6886 13.5202 32.2349 13.4965C31.4921 13.4572 30.9216 12.8248 30.9598 12.082C30.9991 11.3392 31.6211 10.7596 32.3743 10.8069C32.8804 10.8331 33.3536 10.8726 33.7941 10.92C34.533 10.999 35.0679 11.6628 34.9892 12.4016C34.9154 13.0918 34.3317 13.6044 33.652 13.6044Z" fill="#7F8499"/>
<path d="M21.5355 14.3444C20.8886 14.3444 20.3183 13.8777 20.2091 13.2177C20.0868 12.4843 20.5838 11.7913 21.3173 11.6705C23.2536 11.3499 25.0994 11.1106 26.8043 10.9607C27.5628 10.8976 28.1978 11.4432 28.2635 12.1834C28.3292 12.9248 27.781 13.5781 27.0408 13.6426C25.4041 13.7872 23.6254 14.0173 21.7562 14.3262C21.6827 14.3392 21.6078 14.3444 21.5355 14.3444Z" fill="#707487"/>
<path d="M21.5355 8.95985C20.8887 8.95985 20.3183 8.49322 20.2091 7.83445C20.0868 7.10095 20.5826 6.4068 21.3159 6.28588C26.3286 5.45372 30.5194 5.17771 33.8006 5.5379C34.5394 5.61933 35.0731 6.28328 34.9916 7.02333C34.9101 7.76079 34.2527 8.29056 33.5061 8.21431C30.4866 7.88431 26.5112 8.15392 21.7576 8.94125C21.6827 8.95451 21.6078 8.95985 21.5355 8.95985Z" fill="#7F8499"/>
<path d="M44.4204 24.3764C43.7421 24.3764 43.1598 23.8663 43.0835 23.1761C43.0033 22.4373 43.5358 21.7735 44.2759 21.692C45.9533 21.5094 47.924 21.504 49.8919 21.6263C50.6347 21.6736 51.1986 22.3125 51.1512 23.054C51.1039 23.7968 50.457 24.3396 49.7235 24.3132C47.9109 24.1975 46.0913 24.2015 44.5676 24.3685C44.5189 24.3739 44.4689 24.3764 44.4204 24.3764Z" fill="#707487"/>
<path d="M56.5402 25.1124C56.4665 25.1124 56.3929 25.1072 56.318 25.0941C55.8921 25.023 55.4504 24.9535 54.9956 24.8864C54.2607 24.7774 53.7518 24.0937 53.8612 23.3575C53.969 22.6226 54.6526 22.106 55.3901 22.2231C55.8607 22.2928 56.3183 22.3651 56.7599 22.4387C57.4934 22.561 57.9892 23.2538 57.8667 23.9873C57.7575 24.6458 57.1869 25.1124 56.5402 25.1124Z" fill="#7F8499"/>
<path d="M56.5407 19.7267C56.4685 19.7267 56.3934 19.7215 56.3186 19.7084C51.5702 18.9196 47.6042 18.6501 44.5686 18.9815C43.8429 19.0563 43.166 18.528 43.0846 17.7891C43.0043 17.0503 43.5369 16.3865 44.2769 16.3051C47.5609 15.9461 51.7531 16.2209 56.7605 17.053C57.494 17.174 57.9897 17.8681 57.8673 18.6016C57.7581 19.2601 57.1875 19.7267 56.5407 19.7267Z" fill="#7F8499"/>
<path d="M44.4212 13.6045C43.7415 13.6045 43.1578 13.0918 43.0843 12.4018C43.0054 11.6617 43.5404 10.9992 44.2794 10.9202C44.7224 10.8729 45.1931 10.8334 45.6992 10.807C46.4433 10.7584 47.0743 11.3394 47.1138 12.0822C47.1519 12.825 46.5814 13.4572 45.8386 13.4967C45.3851 13.5205 44.9618 13.5546 44.5661 13.5966C44.5173 13.6021 44.4685 13.6045 44.4212 13.6045Z" fill="#7F8499"/>
<path d="M56.5417 14.3449C56.4694 14.3449 56.3943 14.3397 56.3207 14.3266C54.4514 14.0176 52.674 13.7877 51.0374 13.6429C50.2973 13.5772 49.7491 12.9252 49.8147 12.1837C49.8804 11.4437 50.5194 10.8955 51.2739 10.961C52.9776 11.1109 54.8234 11.3502 56.7599 11.6709C57.4934 11.7918 57.9905 12.4846 57.868 13.2181C57.759 13.8782 57.1884 14.3449 56.5417 14.3449Z" fill="#707487"/>
<path d="M56.5397 8.95901C56.4674 8.95901 56.3924 8.95383 56.3175 8.94071C51.5692 8.15323 47.6031 7.88378 44.5676 8.21377C43.8419 8.29139 43.165 7.76026 43.0835 7.02143C43.0033 6.2826 43.5358 5.61879 44.2759 5.53736C47.5598 5.17839 51.752 5.45319 56.7594 6.28534C57.4929 6.40627 57.9887 7.10042 57.8662 7.83391C57.7571 8.49238 57.1864 8.95901 56.5397 8.95901Z" fill="#7F8499"/>
<path d="M56.5387 70H21.5387C20.7946 70 20.1924 69.3979 20.1924 68.6538C20.1924 67.9098 20.7945 67.3076 21.5387 67.3076H56.5385C57.2825 67.3076 57.8847 67.9096 57.8847 68.6538C57.8847 69.3979 57.2827 70 56.5387 70Z" fill="#707487"/>
</svg>
