<svg width="16" height="16" viewBox="0 0 16 16" fill="none" xmlns="http://www.w3.org/2000/svg">
<path d="M12.8571 10.6983L11.7781 9.61777L12.8571 8.53875C13.214 8.18501 13.4974 7.76428 13.6912 7.30069C13.885 6.83711 13.9854 6.33982 13.9865 5.83735C13.9876 5.33489 13.8894 4.83716 13.6976 4.37273C13.5059 3.90831 13.2243 3.48633 12.869 3.13104C12.5137 2.77574 12.0917 2.49412 11.6273 2.30235C11.1628 2.11057 10.6651 2.01242 10.1626 2.01352C9.66018 2.01462 9.16289 2.11495 8.69931 2.30876C8.23572 2.50257 7.81499 2.78603 7.46125 3.14288L6.38223 4.22266L5.30245 3.14364L6.38299 2.06462C7.38481 1.06281 8.74355 0.5 10.1603 0.5C11.5771 0.5 12.9359 1.06281 13.9377 2.06462C14.9395 3.06644 15.5023 4.42518 15.5023 5.84196C15.5023 7.25873 14.9395 8.61748 13.9377 9.61929L12.8579 10.6983H12.8571ZM10.6991 12.8564L9.61929 13.9354C8.61748 14.9372 7.25873 15.5 5.84196 15.5C4.42518 15.5 3.06643 14.9372 2.06462 13.9354C1.06281 12.9336 0.5 11.5748 0.5 10.158C0.5 8.74127 1.06281 7.38252 2.06462 6.38071L3.14441 5.30168L4.22343 6.38223L3.14441 7.46125C2.78756 7.81499 2.50409 8.23572 2.31029 8.69931C2.11648 9.16289 2.01614 9.66018 2.01504 10.1626C2.01394 10.6651 2.1121 11.1628 2.30387 11.6273C2.49565 12.0917 2.77727 12.5137 3.13257 12.869C3.48786 13.2243 3.90983 13.5059 4.37426 13.6977C4.83869 13.8894 5.33642 13.9876 5.83888 13.9865C6.34134 13.9854 6.83864 13.885 7.30222 13.6912C7.7658 13.4974 8.18654 13.214 8.54027 12.8571L9.61929 11.7781L10.6991 12.8571V12.8564ZM10.1588 4.76218L11.2386 5.84196L5.84272 11.2371L4.76294 10.158L10.1588 4.76294V4.76218Z" fill="white"/>
</svg>
