<svg width="16" height="15" viewBox="0 0 16 15" fill="none" xmlns="http://www.w3.org/2000/svg">
<path d="M2.375 0.333344C1.87772 0.333344 1.40081 0.530888 1.04917 0.882518C0.697544 1.23415 0.5 1.71106 0.5 2.20834L0.5 11.1146C0.5 11.4876 0.648158 11.8452 0.911881 12.109C1.1756 12.3727 1.53329 12.5208 1.90625 12.5208H2.51844C2.71446 11.8319 3.05516 11.1927 3.51781 10.6458H1.4375V2.20834C1.4375 1.9597 1.53627 1.72125 1.71209 1.54543C1.8879 1.36962 2.12636 1.27084 2.375 1.27084H13.625C13.8736 1.27084 14.1121 1.36962 14.2879 1.54543C14.4637 1.72125 14.5625 1.9597 14.5625 2.20834V10.6458H12.4822C13.0016 11.259 13.3166 11.933 13.4816 12.5208H14.0938C14.4667 12.5208 14.8244 12.3727 15.0881 12.109C15.3518 11.8452 15.5 11.4876 15.5 11.1146V2.20834C15.5 1.71106 15.3025 1.23415 14.9508 0.882518C14.5992 0.530888 14.1223 0.333344 13.625 0.333344H2.375Z" fill="white"/>
<path d="M4.25 14.3973C4.25 14.3973 3.3125 14.3973 3.3125 13.4598C3.3125 12.5223 4.25 9.70981 8 9.70981C11.75 9.70981 12.6875 12.5223 12.6875 13.4598C12.6875 14.3973 11.75 14.3973 11.75 14.3973H4.25ZM8 8.81918C8.6216 8.81918 9.21774 8.57225 9.65728 8.13272C10.0968 7.69318 10.3438 7.09703 10.3438 6.47543C10.3438 5.85383 10.0968 5.25769 9.65728 4.81815C9.21774 4.37861 8.6216 4.13168 8 4.13168C7.3784 4.13168 6.78226 4.37861 6.34272 4.81815C5.90318 5.25769 5.65625 5.85383 5.65625 6.47543C5.65625 7.09703 5.90318 7.69318 6.34272 8.13272C6.78226 8.57225 7.3784 8.81918 8 8.81918Z" fill="white"/>
</svg>
