<svg width="12" height="16" viewBox="0 0 12 16" fill="none" xmlns="http://www.w3.org/2000/svg">
<path d="M4.4334 11.9284H7.32926C7.42355 11.0698 7.86143 10.3612 8.57217 9.58757C8.65289 9.50043 9.16649 8.96826 9.22721 8.89254C9.73172 8.26225 10.0479 7.50227 10.1395 6.70013C10.231 5.89799 10.0941 5.08631 9.74455 4.35857C9.39499 3.63082 8.84699 3.01661 8.16366 2.58665C7.48033 2.1567 6.68945 1.9285 5.8821 1.92833C5.07476 1.92815 4.28378 2.15602 3.60027 2.58568C2.91675 3.01534 2.36849 3.62932 2.01862 4.35692C1.66875 5.08452 1.53151 5.89614 1.62269 6.69832C1.71388 7.50049 2.02978 8.2606 2.53403 8.89111C2.59546 8.96755 3.11048 9.50043 3.18977 9.58686C3.90124 10.3612 4.33911 11.0698 4.4334 11.9284ZM7.30997 13.357H4.45269V14.0714H7.30997V13.357ZM1.41969 9.78544C0.746936 8.9449 0.325313 7.9314 0.203391 6.86171C0.0814682 5.79201 0.264205 4.70963 0.730551 3.73926C1.1969 2.76888 1.92788 1.94998 2.8393 1.37689C3.75071 0.803795 4.80548 0.499828 5.8821 0.5C6.95872 0.500172 8.0134 0.804477 8.92463 1.37786C9.83586 1.95124 10.5666 2.77038 11.0326 3.74091C11.4987 4.71143 11.681 5.79387 11.5588 6.86353C11.4365 7.93318 11.0146 8.94654 10.3415 9.78687C9.89867 10.3383 8.73861 11.2141 8.73861 12.2856V14.0714C8.73861 14.4503 8.58809 14.8136 8.32017 15.0816C8.05225 15.3495 7.68887 15.5 7.30997 15.5H4.45269C4.07379 15.5 3.71041 15.3495 3.44249 15.0816C3.17457 14.8136 3.02405 14.4503 3.02405 14.0714V12.2856C3.02405 11.2141 1.86328 10.3383 1.41969 9.78544ZM6.59565 6.2167H8.38145L5.16701 10.5026V7.64534H3.38121L6.59565 3.35656V6.21741V6.2167Z" fill="white"/>
</svg>
