<svg width="16" height="16" viewBox="0 0 16 16" fill="none" xmlns="http://www.w3.org/2000/svg">
<path d="M8.46904 5.65618C8.46904 5.53186 8.41965 5.41264 8.33175 5.32473C8.24384 5.23682 8.12461 5.18744 8.00029 5.18744C7.87598 5.18744 7.75675 5.23682 7.66884 5.32473C7.58094 5.41264 7.53155 5.53186 7.53155 5.65618V8.808L6.19189 11.0392C6.12786 11.1459 6.10884 11.2736 6.13899 11.3943C6.16914 11.515 6.246 11.6188 6.35267 11.6828C6.45933 11.7468 6.58706 11.7658 6.70776 11.7357C6.82845 11.7055 6.93223 11.6287 6.99625 11.522L8.40247 9.17831C8.44606 9.1055 8.46907 9.02223 8.46904 8.93737V5.65618Z" fill="white"/>
<path d="M4.12779 15.3982L4.12777 15.3982C4.03037 15.4955 3.89832 15.5501 3.76067 15.55C3.62302 15.5499 3.49105 15.4951 3.39379 15.3977C3.29652 15.3003 3.24194 15.1683 3.24203 15.0306C3.24213 14.893 3.29691 14.761 3.39431 14.6637M4.12779 15.3982L3.95835 14.1704C3.94506 14.1601 3.9318 14.1498 3.91859 14.1395M4.12779 15.3982L4.80045 14.7256L4.12779 15.3982ZM3.39431 14.6637L3.42964 14.6991L3.39428 14.6638L3.39431 14.6637ZM3.39431 14.6637L3.91859 14.1395M3.91859 14.1395L3.95421 14.1038L11.9073 15.3629C11.9953 15.4508 12.1146 15.5001 12.239 15.5C12.3634 15.4999 12.4827 15.4504 12.5706 15.3624C12.6585 15.2744 12.7078 15.1551 12.7077 15.0307C12.7076 14.9063 12.6581 14.787 12.5701 14.6991L12.6055 14.6638L12.6054 14.6637L12.082 14.1395C13.089 13.3494 13.8455 12.2837 14.2589 11.0715C14.6785 9.84133 14.7263 8.51483 14.3963 7.25768C14.0664 6.00053 13.3733 4.86848 12.4037 4.00295C11.4448 3.14704 10.2576 2.58929 8.98735 2.39743V1.48748H9.40609C9.54367 1.48748 9.67562 1.43283 9.7729 1.33555C9.87018 1.23826 9.92484 1.10632 9.92484 0.968742C9.92484 0.831163 9.87018 0.699219 9.7729 0.601936C9.67562 0.504653 9.54367 0.45 9.40609 0.45H6.59364C6.45606 0.45 6.32412 0.504653 6.22684 0.601936C6.12955 0.699219 6.0749 0.831163 6.0749 0.968742C6.0749 1.10632 6.12955 1.23826 6.22684 1.33555C6.32412 1.43283 6.45606 1.48748 6.59364 1.48748H7.01238V2.39744C5.74221 2.58944 4.55509 3.1473 3.59637 4.00327C2.62688 4.86886 1.93393 6.00092 1.60408 7.25805C1.27423 8.51517 1.3221 9.84161 1.74172 11.0717C2.15522 12.2838 2.91164 13.3494 3.91859 14.1395ZM7.99987 15.5497C7.99989 15.5497 7.99992 15.5497 7.99994 15.5497L7.99987 15.4997M7.99987 15.5497L11.2079 14.6635C10.2283 15.2134 9.12333 15.5014 7.99987 15.4997M7.99987 15.5497C7.99984 15.5497 7.99982 15.5497 7.99979 15.5497L7.99987 15.4997M7.99987 15.5497L4.7918 14.6635C5.77149 15.2134 6.87641 15.5014 7.99987 15.4997M1.27344 5.58796L1.32181 5.63L1.35082 5.57286C2.06952 4.1573 3.21981 3.007 4.63538 2.2883L4.69252 2.25929L4.65048 2.21092C4.33056 1.8428 3.90583 1.58118 3.43314 1.46108C2.96045 1.34099 2.46235 1.36815 2.00552 1.53893C1.54869 1.70971 1.15492 2.01595 0.876926 2.41668C0.598933 2.8174 0.449978 3.29349 0.45 3.78119C0.45 3.78127 0.45 3.78134 0.45 3.78141L0.450002 3.83119H0.450512C0.464879 4.53206 0.780593 5.15965 1.27344 5.58796ZM11.3493 2.21092L11.3072 2.25929L11.3644 2.2883C12.7799 3.007 13.9302 4.1573 14.6489 5.57286L14.6779 5.63L14.7263 5.58796C15.0944 5.26805 15.356 4.84332 15.4761 4.37063C15.5962 3.89793 15.5691 3.39983 15.3983 2.943C15.2275 2.48617 14.9213 2.0924 14.5205 1.81441C14.1198 1.53642 13.6437 1.38746 13.156 1.38748C12.435 1.38748 11.7877 1.70639 11.3493 2.21092ZM7.5706 3.37918C7.85637 3.35745 8.14337 3.35745 8.42914 3.37918C9.86622 3.49016 11.2045 4.15343 12.1631 5.22981C13.1217 6.3062 13.6262 7.71202 13.5706 9.15232C13.5151 10.5926 12.9039 11.9554 11.8652 12.9548C10.8266 13.9542 9.44124 14.5124 7.99987 14.5124C6.5585 14.5124 5.17315 13.9542 4.1345 12.9548C3.09586 11.9554 2.48464 10.5926 2.42911 9.15232C2.37357 7.71202 2.87804 6.3062 3.83665 5.22981C4.79526 4.15343 6.13351 3.49016 7.5706 3.37918Z" fill="white" stroke="white" stroke-width="0.1"/>
</svg>
