<svg width="16" height="12" viewBox="0 0 16 12" fill="none" xmlns="http://www.w3.org/2000/svg">
<path d="M1.46867 1.34238L1.46885 1.34256L1.57222 1.44664L2.74676 0.27107L1.46867 1.34238ZM1.46867 1.34238C1.4119 1.28561 1.3445 1.24058 1.27033 1.20986C1.19615 1.17913 1.11665 1.16332 1.03637 1.16332C0.956081 1.16332 0.876581 1.17913 0.802407 1.20986C0.728233 1.24058 0.660836 1.28561 0.604065 1.34238C0.547295 1.39915 0.502262 1.46655 0.471537 1.54072C0.440813 1.6149 0.425 1.6944 0.425 1.77468C0.425 1.85497 0.440813 1.93447 0.471537 2.00864C0.502262 2.08282 0.547295 2.15022 0.604065 2.20699L1.13969 2.74261L1.46867 1.34238ZM1.46867 5.6279L1.46885 5.62808L1.57222 5.73216L2.74676 4.55659L1.46867 5.6279ZM1.46867 5.6279C1.35401 5.51325 1.19851 5.44884 1.03637 5.44884C0.874222 5.44884 0.718719 5.51325 0.604065 5.6279C0.489412 5.74256 0.425 5.89806 0.425 6.06021C0.425 6.22235 0.489412 6.37785 0.604065 6.49251L1.13969 7.02813C1.1397 7.02814 1.1397 7.02815 1.13971 7.02815C1.19644 7.08501 1.26382 7.13013 1.338 7.16091C1.41219 7.1917 1.49173 7.20754 1.57206 7.20754C1.65238 7.20754 1.73192 7.1917 1.80611 7.16091C1.88029 7.13013 1.94766 7.08503 2.00438 7.02818C2.00439 7.02816 2.00441 7.02815 2.00443 7.02813L3.61136 5.42119L1.46867 5.6279ZM1.57222 10.0177L2.74676 8.84211L1.57222 10.0177ZM1.57222 10.0177L1.46885 9.91361L1.46867 9.91342C1.35401 9.79877 1.19851 9.73436 1.03637 9.73436C0.874222 9.73436 0.718719 9.79877 0.604065 9.91342C0.489412 10.0281 0.425 10.1836 0.425 10.3457C0.425 10.5079 0.489412 10.6634 0.604065 10.778L1.13969 11.3137C1.19642 11.3705 1.26381 11.4156 1.338 11.4464C1.41219 11.4772 1.49173 11.4931 1.57206 11.4931C1.65238 11.4931 1.73192 11.4772 1.80611 11.4464C1.88031 11.4156 1.9477 11.3705 2.00443 11.3137L3.61136 9.70671L1.57222 10.0177ZM3.61143 0.271002C3.66827 0.327716 3.71337 0.395083 3.74414 0.469247C3.77493 0.54344 3.79077 0.622978 3.79077 0.703304C3.79077 0.783631 3.77493 0.863169 3.74414 0.937362C3.71337 1.01153 3.66827 1.07889 3.61143 1.13561L3.61143 0.271002ZM3.61143 0.271002C3.55471 0.214163 3.48735 0.169065 3.41318 0.13829C3.33899 0.107504 3.25945 0.0916565 3.17913 0.0916565C3.0988 0.0916565 3.01926 0.107504 2.94507 0.13829C2.8709 0.169069 2.80352 0.214175 2.7468 0.271026L3.61143 0.271002ZM3.61136 4.55646C3.66823 4.61318 3.71335 4.68058 3.74414 4.75477C3.77493 4.82896 3.79077 4.9085 3.79077 4.98882C3.79077 5.06915 3.77493 5.14869 3.74414 5.22288C3.71337 5.29705 3.66827 5.36441 3.61143 5.42113L3.61136 4.55646ZM3.61136 4.55646L3.5584 4.60956M3.61136 4.55646L3.5584 4.60956M3.5584 4.60956L3.6115 4.55659C3.55477 4.49972 3.48738 4.4546 3.41318 4.42381C3.33899 4.39302 3.25945 4.37718 3.17913 4.37718C3.0988 4.37718 3.01926 4.39302 2.94507 4.42381C2.8709 4.45459 2.80352 4.4997 2.7468 4.55655L3.5584 4.60956ZM3.61136 8.84198C3.66823 8.89871 3.71335 8.9661 3.74414 9.04029C3.77493 9.11448 3.79077 9.19402 3.79077 9.27435C3.79077 9.35467 3.77493 9.43421 3.74414 9.5084C3.71337 9.58257 3.66827 9.64993 3.61143 9.70665L3.61136 8.84198ZM3.61136 8.84198L3.5584 8.89508M3.61136 8.84198L3.5584 8.89508M3.5584 8.89508L3.6115 8.84211C3.55477 8.78524 3.48738 8.74012 3.41319 8.70933C3.33899 8.67854 3.25945 8.6627 3.17913 8.6627C3.0988 8.6627 3.01926 8.67855 2.94507 8.70933C2.8709 8.74011 2.80352 8.78522 2.7468 8.84207L3.5584 8.89508ZM4.89007 9.9139C4.77554 10.0284 4.7112 10.1838 4.7112 10.3457C4.7112 10.5077 4.77554 10.663 4.89007 10.7775C5.00459 10.8921 5.15992 10.9564 5.32189 10.9564H14.9643C15.1263 10.9564 15.2816 10.8921 15.3961 10.7775C15.5107 10.663 15.575 10.5077 15.575 10.3457C15.575 10.1838 15.5107 10.0284 15.3961 9.9139C15.2816 9.79938 15.1263 9.73504 14.9643 9.73504H5.32189C5.15992 9.73504 5.00459 9.79938 4.89007 9.9139ZM4.89007 5.62838C4.77554 5.74291 4.7112 5.89824 4.7112 6.06021C4.7112 6.22217 4.77554 6.3775 4.89007 6.49203C5.00459 6.60656 5.15992 6.6709 5.32189 6.6709H14.9643C15.1263 6.6709 15.2816 6.60656 15.3961 6.49203C15.5107 6.3775 15.575 6.22217 15.575 6.06021C15.575 5.89824 15.5107 5.74291 15.3961 5.62838C15.2816 5.51386 15.1263 5.44952 14.9643 5.44952H5.32189C5.15992 5.44952 5.00459 5.51386 4.89007 5.62838ZM4.89007 1.34286C4.77554 1.45739 4.7112 1.61272 4.7112 1.77468C4.7112 1.93665 4.77554 2.09198 4.89007 2.20651C5.00459 2.32103 5.15992 2.38537 5.32189 2.38537H14.9643C15.1263 2.38537 15.2816 2.32103 15.3961 2.20651C15.5107 2.09198 15.575 1.93665 15.575 1.77468C15.575 1.61272 15.5107 1.45739 15.3961 1.34286C15.2816 1.22833 15.1263 1.16399 14.9643 1.16399H5.32189C5.15992 1.16399 5.00459 1.22834 4.89007 1.34286ZM2.00443 2.74261L3.61136 1.13567L2.00443 2.74261ZM1.80611 2.87539C1.88028 2.84461 1.94764 2.79952 2.00436 2.74268H1.13976C1.19647 2.79952 1.26384 2.84461 1.338 2.87539C1.41219 2.90618 1.49173 2.92202 1.57206 2.92202C1.65238 2.92202 1.73192 2.90618 1.80611 2.87539Z" fill="white" stroke="white" stroke-width="0.15"/>
</svg>
