<svg width="16" height="13" viewBox="0 0 16 13" fill="none" xmlns="http://www.w3.org/2000/svg">
<path d="M0.660958 5.33648C0.794759 5.08303 0.965069 4.84945 1.16671 4.64281L1.1668 4.64272C1.36927 4.4362 1.58475 4.26005 1.8133 4.11574C2.03835 3.97363 2.22641 3.85671 2.37962 3.76644L2.42191 3.74151L2.44761 3.78335L2.71011 4.21078L2.73747 4.25533L2.69174 4.28067C2.46249 4.40776 2.27887 4.51868 2.14052 4.61228L2.12782 4.62087H2.12625C1.97599 4.72059 1.83804 4.83674 1.71512 4.96704L1.71447 4.96773L1.71446 4.96773C1.58886 5.09588 1.48569 5.24304 1.40896 5.40336M0.660958 5.33648C0.661017 5.33638 0.661075 5.33627 0.661134 5.33616L0.705 5.36016L0.66078 5.33682C0.660839 5.33671 0.660898 5.3366 0.660958 5.33648ZM0.660958 5.33648C0.519173 5.59581 0.45 5.88459 0.45 6.20044C0.45 6.64416 0.541343 7.00692 0.729698 7.28833L0.729844 7.28854C0.921978 7.5724 1.2417 7.7088 1.67125 7.7088C1.95105 7.7088 2.17557 7.61989 2.338 7.4365M2.338 7.4365C2.49332 7.27492 2.58189 7.06297 2.58624 6.84135H2.58625V6.84037C2.58625 6.5503 2.49491 6.32311 2.30448 6.16928M2.338 7.4365C2.33775 7.43676 2.33751 7.43702 2.33726 7.43728L2.30125 7.40259M2.338 7.4365C2.33824 7.43623 2.33848 7.43596 2.33872 7.43569L2.30125 7.40259M2.30448 6.16928C2.12159 6.01267 1.87264 5.93673 1.5625 5.93673H1.26693M2.30448 6.16928C2.30467 6.16945 2.30486 6.16961 2.30506 6.16978L2.2725 6.20773M2.30448 6.16928C2.30428 6.16912 2.30408 6.16896 2.30388 6.1688L2.2725 6.20773M1.26693 5.93673C1.2972 5.71898 1.34493 5.54072 1.40896 5.40336M1.26693 5.93673H1.21646M1.26693 5.93673C1.26465 5.95317 1.26246 5.96984 1.26037 5.98673H1.5625C1.865 5.98673 2.10125 6.0608 2.2725 6.20773M1.40896 5.40336C1.40893 5.40344 1.40889 5.40351 1.40886 5.40359L1.36375 5.38201M1.40896 5.40336C1.409 5.40329 1.40903 5.40322 1.40906 5.40315L1.36375 5.38201M1.36375 5.38201C1.29621 5.5268 1.24712 5.71269 1.21646 5.93673M1.36375 5.38201C1.44288 5.2166 1.54928 5.06484 1.67875 4.93273C1.80775 4.79599 1.95292 4.67453 2.11125 4.57087L1.21646 5.93673M1.21646 5.93673L0.77125 7.26051C0.95125 7.52644 1.2525 7.6588 1.67125 7.6588C1.94 7.6588 2.15 7.5738 2.30125 7.40259M2.2725 6.20773C2.44875 6.3498 2.53625 6.56109 2.53625 6.84037C2.53214 7.04955 2.44842 7.24984 2.30125 7.40259M4.77368 4.66297L4.8491 4.6124C4.98876 4.51875 5.17371 4.40778 5.40184 4.28062L5.4474 4.25522L5.42011 4.21078L5.15761 3.78335L5.13191 3.74151L5.08962 3.76644C4.93641 3.85671 4.74835 3.97363 4.5233 4.11574C4.29475 4.26005 4.07927 4.4362 3.8768 4.64272L3.87671 4.64281C3.67507 4.84945 3.50476 5.08303 3.37096 5.33649C3.22917 5.59581 3.16 5.88459 3.16 6.20044C3.16 6.64416 3.25134 7.00692 3.4397 7.28833L3.43984 7.28854C3.63198 7.5724 3.9517 7.7088 4.38125 7.7088C4.66104 7.7088 4.88556 7.61989 5.048 7.43651C5.20332 7.27492 5.29189 7.06297 5.29624 6.84135H5.29625V6.84037C5.29625 6.5503 5.20491 6.32311 5.01448 6.16928C4.83159 6.01267 4.58264 5.93673 4.2725 5.93673H3.97563C3.99748 5.7559 4.04376 5.57854 4.11335 5.40927C4.18304 5.25785 4.28683 5.11211 4.4248 4.96859L4.42524 4.96812C4.53077 4.85545 4.64749 4.75324 4.77368 4.66297ZM1.125 0.116656C0.946439 0.116656 0.77491 0.185549 0.648219 0.308621C0.521479 0.43174 0.45 0.599039 0.45 0.773799C0.45 0.94856 0.521479 1.11586 0.648219 1.23898C0.77491 1.36205 0.946439 1.43094 1.125 1.43094H14.875C15.0536 1.43094 15.2251 1.36205 15.3518 1.23898C15.4785 1.11586 15.55 0.94856 15.55 0.773799C15.55 0.599039 15.4785 0.43174 15.3518 0.308621C15.2251 0.185549 15.0536 0.116656 14.875 0.116656H1.125ZM7.375 3.75951C7.19644 3.75951 7.02491 3.82841 6.89822 3.95148C6.77148 4.0746 6.7 4.2419 6.7 4.41666C6.7 4.59142 6.77148 4.75872 6.89822 4.88184C7.02491 5.00491 7.19644 5.0738 7.375 5.0738H14.875C15.0536 5.0738 15.2251 5.00491 15.3518 4.88184C15.4785 4.75872 15.55 4.59142 15.55 4.41666C15.55 4.2419 15.4785 4.0746 15.3518 3.95148C15.2251 3.82841 15.0536 3.75951 14.875 3.75951H7.375ZM7.375 7.40237C7.19644 7.40237 7.02491 7.47126 6.89822 7.59434C6.77148 7.71745 6.7 7.88475 6.7 8.05951C6.7 8.23427 6.77148 8.40158 6.89822 8.52469C7.02491 8.64777 7.19644 8.71666 7.375 8.71666H14.875C15.0536 8.71666 15.2251 8.64777 15.3518 8.52469C15.4785 8.40158 15.55 8.23427 15.55 8.05951C15.55 7.88475 15.4785 7.71745 15.3518 7.59434C15.2251 7.47126 15.0536 7.40237 14.875 7.40237H7.375ZM1.125 11.0452C0.946439 11.0452 0.77491 11.1141 0.648219 11.2372C0.521479 11.3603 0.45 11.5276 0.45 11.7024C0.45 11.8771 0.521479 12.0444 0.648219 12.1676C0.77491 12.2906 0.946439 12.3595 1.125 12.3595H14.875C15.0536 12.3595 15.2251 12.2906 15.3518 12.1676C15.4785 12.0444 15.55 11.8771 15.55 11.7024C15.55 11.5276 15.4785 11.3603 15.3518 11.2372C15.2251 11.1141 15.0536 11.0452 14.875 11.0452H1.125Z" fill="#FF5174" stroke="#FF5174" stroke-width="0.1"/>
</svg>
